{"title":"A.Little.Trip.to.Heaven.2005.720p.WEB-DL.DD5.1.H264-FGT","uid":12018538,"size":3142498795,"categoryP":"video","categoryS":"hd___movies","magnet":"?xt=urn:btih:2675d77eee5c05122b34a9fa6b05b9895ce84fe5&amp;dn=A.Little.Trip.to.Heaven.2005.720p.WEB-DL.DD5.1.H264-FGT&amp;tr=udp%3A%2F%2Ftracker.openbittorrent.com%3A80&amp;tr=udp%3A%2F%2Fopen.demonii.com%3A1337&amp;tr=udp%3A%2F%2Ftracker.coppersurfer.tk%3A6969&amp;tr=udp%3A%2F%2Fexodus.desync.com%3A6969","seeders":0,"leechers":1,"uploader":null,"files":3,"time":1434358869,"description":"Video\nID                                       : 1\nFormat                                   : AVC\nFormat/Info                              : Advanced Video Codec\nFormat profile                           : &lt;a class=&quot;__cf_email__&quot; href=&quot;/cdn-cgi/l/email-protection&quot; data-cfemail=&quot;266b474f48666a150817&quot;&gt;[email&amp;#160;protected]&lt;/a&gt;&lt;script data-cfhash='f9e31' type=&quot;text/javascript&quot;&gt;\n/* &lt;![CDATA[ */!function(){try{var t=&quot;currentScript&quot;in document?document.currentScript:function(){for(var t=document.getElementsByTagName(&quot;script&quot;),e=t.length;e--;)if(t[e].getAttribute(&quot;data-cfhash&quot;))return t[e]}();if(t&amp;&amp;t.previousSibling){var e,r,n,i,c=t.previousSibling,a=c.getAttribute(&quot;data-cfemail&quot;);if(a){for(e=&quot;&quot;,r=parseInt(a.substr(0,2),16),n=2;a.length-n;n+=2)i=parseInt(a.substr(n,2),16)^r,e+=String.fromCharCode(i);e=document.createTextNode(e),c.parentNode.replaceChild(e,c)}t.parentNode.removeChild(t);}}catch(u){}}()/* ]]&gt; */&lt;/script&gt;\nFormat settings, CABAC                   : No\nFormat settings, ReFrames                : 2 frames\nFormat settings, GOP                     : N=1\nCodec ID                                 : V_MPEG4/ISO/AVC\nDuration                                 : 1h 30mn\nBit rate                                 : 4 178 Kbps\nWidth                                    : 1 280 pixels\nHeight                                   : 544 pixels\nDisplay aspect ratio                     : 2.35:1\nFrame rate mode                          : Constant\nFrame rate                               : 23.976 fps\nColor space                              : YUV\nChroma subsampling                       : 4:2:0\nBit depth                                : 8 bits\nScan type                                : Progressive\nBits/(Pixel*Frame)                       : 0.250\nStream size                              : 2.63 GiB (90%)\nTitle                                    : A.Little.Trip.to.Heaven.2005.720p.WEB-DL.DD5.1.H264-FGT\nLanguage                                 : English\nDefault                                  : Yes\nForced                                   : No\nColor range                              : Limited\nColor primaries                          : BT.709\nTransfer characteristics                 : BT.709\nMatrix coefficients                      : BT.709\n\nAudio\nID                                       : 2\nFormat                                   : AC-3\nFormat/Info                              : Audio Coding 3\nMode extension                           : CM (complete main)\nFormat settings, Endianness              : Big\nCodec ID                                 : A_AC3\nDuration                                 : 1h 30mn\nBit rate mode                            : Constant\nBit rate                                 : 384 Kbps\nChannel(s)                               : 6 channels\nChannel positions                        : Front: L C R, Side: L R, LFE\nSampling rate                            : 48.0 KHz\nBit depth                                : 16 bits\nCompression mode                         : Lossy\nStream size                              : 247 MiB (8%)\nTitle                                    : A.Little.Trip.to.Heaven.2005.720p.WEB-DL.DD5.1.H264-FGT\nLanguage                                 : English\nDefault                                  : Yes\nForced                                   : No\n\nText\nID                                       : 3\nFormat                                   : UTF-8\nCodec ID                                 : S_TEXT/UTF8\nCodec ID/Info                            : UTF-8 Plain Text\nLanguage                                 : English\nDefault                                  : Yes\nForced                                   : No\n\nMenu\n00:00:00.000                             : en:Main Titles\n00:08:58.000                             : en:Count to Ten\n00:16:20.000                             : en:Window Watching\n00:23:30.000                             : en:Scorched Car\n00:31:36.000                             : en:Lodgings\n00:39:07.000                             : en:Scars of the Past\n00:45:30.000                             : en:Beach Grave\n00:54:16.000                             : en:Nocturnal Investigation\n01:01:49.000                             : en:Locked Out\n01:08:14.000                             : en:Insurance Policy\n01:15:10.000                             : en:Forged Marriage\n01:23:22.000                             : en:End Credits","torrent":{"xt":"urn:btih:2675d77eee5c05122b34a9fa6b05b9895ce84fe5","amp;dn":"A.Little.Trip.to.Heaven.2005.720p.WEB-DL.DD5.1.H264-FGT","amp;tr":["udp%3A%2F%2Ftracker.openbittorrent.com%3A80","udp%3A%2F%2Fopen.demonii.com%3A1337","udp%3A%2F%2Ftracker.coppersurfer.tk%3A6969","udp%3A%2F%2Fexodus.desync.com%3A6969"],"infoHash":"2675d77eee5c05122b34a9fa6b05b9895ce84fe5","infoHashBuffer":{"type":"Buffer","data":[38,117,215,126,238,92,5,18,43,52,169,250,107,5,185,137,92,232,79,229]},"announce":[],"urlList":[]}}